<svg width="1363" height="297" viewBox="0 0 1363 297" fill="none" xmlns="http://www.w3.org/2000/svg">
<path d="M0 15C0 6.71573 6.71573 0 15 0H37V297H15C6.71573 297 0 290.284 0 282V15Z" fill="#00B7EB"/>
<path d="M37 0H1066V297H37V0Z" fill="#F0F0F0"/>
<path d="M105.691 53.7832L98.7305 75H93.123L102.633 49.4062H106.201L105.691 53.7832ZM111.475 75L104.496 53.7832L103.934 49.4062H107.537L117.1 75H111.475ZM111.158 65.4727V69.6035H97.6406V65.4727H111.158ZM124.5 48V75H119.42V48H124.5ZM134.027 55.9805V75H128.947V55.9805H134.027ZM128.631 51.0234C128.631 50.2852 128.889 49.6758 129.404 49.1953C129.92 48.7148 130.611 48.4746 131.479 48.4746C132.334 48.4746 133.02 48.7148 133.535 49.1953C134.062 49.6758 134.326 50.2852 134.326 51.0234C134.326 51.7617 134.062 52.3711 133.535 52.8516C133.02 53.332 132.334 53.5723 131.479 53.5723C130.611 53.5723 129.92 53.332 129.404 52.8516C128.889 52.3711 128.631 51.7617 128.631 51.0234ZM149.9 49.4062H154.365L160.939 68.1973L167.514 49.4062H171.979L162.732 75H159.146L149.9 49.4062ZM147.492 49.4062H151.939L152.748 67.7227V75H147.492V49.4062ZM169.939 49.4062H174.404V75H169.131V67.7227L169.939 49.4062ZM177.902 65.6836V65.3145C177.902 63.9199 178.102 62.6367 178.5 61.4648C178.898 60.2812 179.479 59.2559 180.24 58.3887C181.002 57.5215 181.939 56.8477 183.053 56.3672C184.166 55.875 185.443 55.6289 186.885 55.6289C188.326 55.6289 189.609 55.875 190.734 56.3672C191.859 56.8477 192.803 57.5215 193.564 58.3887C194.338 59.2559 194.924 60.2812 195.322 61.4648C195.721 62.6367 195.92 63.9199 195.92 65.3145V65.6836C195.92 67.0664 195.721 68.3496 195.322 69.5332C194.924 70.7051 194.338 71.7305 193.564 72.6094C192.803 73.4766 191.865 74.1504 190.752 74.6309C189.639 75.1113 188.361 75.3516 186.92 75.3516C185.479 75.3516 184.195 75.1113 183.07 74.6309C181.957 74.1504 181.014 73.4766 180.24 72.6094C179.479 71.7305 178.898 70.7051 178.5 69.5332C178.102 68.3496 177.902 67.0664 177.902 65.6836ZM182.965 65.3145V65.6836C182.965 66.4805 183.035 67.2246 183.176 67.916C183.316 68.6074 183.539 69.2168 183.844 69.7441C184.16 70.2598 184.57 70.6641 185.074 70.957C185.578 71.25 186.193 71.3965 186.92 71.3965C187.623 71.3965 188.227 71.25 188.73 70.957C189.234 70.6641 189.639 70.2598 189.943 69.7441C190.248 69.2168 190.471 68.6074 190.611 67.916C190.764 67.2246 190.84 66.4805 190.84 65.6836V65.3145C190.84 64.541 190.764 63.8145 190.611 63.1348C190.471 62.4434 190.242 61.834 189.926 61.3066C189.621 60.7676 189.217 60.3457 188.713 60.041C188.209 59.7363 187.6 59.584 186.885 59.584C186.17 59.584 185.561 59.7363 185.057 60.041C184.564 60.3457 184.16 60.7676 183.844 61.3066C183.539 61.834 183.316 62.4434 183.176 63.1348C183.035 63.8145 182.965 64.541 182.965 65.3145ZM204.094 60.1289V75H199.031V55.9805H203.795L204.094 60.1289ZM209.824 55.8574L209.736 60.5508C209.49 60.5156 209.191 60.4863 208.84 60.4629C208.5 60.4277 208.189 60.4102 207.908 60.4102C207.193 60.4102 206.572 60.5039 206.045 60.6914C205.529 60.8672 205.096 61.1309 204.744 61.4824C204.404 61.834 204.146 62.2617 203.971 62.7656C203.807 63.2695 203.713 63.8438 203.689 64.4883L202.67 64.1719C202.67 62.9414 202.793 61.8105 203.039 60.7793C203.285 59.7363 203.643 58.8281 204.111 58.0547C204.592 57.2812 205.178 56.6836 205.869 56.2617C206.561 55.8398 207.352 55.6289 208.242 55.6289C208.523 55.6289 208.811 55.6523 209.104 55.6992C209.396 55.7344 209.637 55.7871 209.824 55.8574ZM222.41 55.9805V59.5664H211.336V55.9805H222.41ZM214.078 51.2871H219.141V69.2695C219.141 69.8203 219.211 70.2422 219.352 70.5352C219.504 70.8281 219.727 71.0332 220.02 71.1504C220.312 71.2559 220.682 71.3086 221.127 71.3086C221.443 71.3086 221.725 71.2969 221.971 71.2734C222.229 71.2383 222.445 71.2031 222.621 71.168L222.639 74.8945C222.205 75.0352 221.736 75.1465 221.232 75.2285C220.729 75.3105 220.172 75.3516 219.562 75.3516C218.449 75.3516 217.477 75.1699 216.645 74.8066C215.824 74.4316 215.191 73.834 214.746 73.0137C214.301 72.1934 214.078 71.1152 214.078 69.7793V51.2871ZM235.559 70.7109V62.2383C235.559 61.6289 235.459 61.1074 235.26 60.6738C235.061 60.2285 234.75 59.8828 234.328 59.6367C233.918 59.3906 233.385 59.2676 232.729 59.2676C232.166 59.2676 231.68 59.3672 231.27 59.5664C230.859 59.7539 230.543 60.0293 230.32 60.3926C230.098 60.7441 229.986 61.1602 229.986 61.6406H224.924C224.924 60.832 225.111 60.0645 225.486 59.3379C225.861 58.6113 226.406 57.9727 227.121 57.4219C227.836 56.8594 228.686 56.4199 229.67 56.1035C230.666 55.7871 231.779 55.6289 233.01 55.6289C234.486 55.6289 235.799 55.875 236.947 56.3672C238.096 56.8594 238.998 57.5977 239.654 58.582C240.322 59.5664 240.656 60.7969 240.656 62.2734V70.4121C240.656 71.4551 240.721 72.3105 240.85 72.9785C240.979 73.6348 241.166 74.209 241.412 74.7012V75H236.297C236.051 74.4844 235.863 73.8398 235.734 73.0664C235.617 72.2812 235.559 71.4961 235.559 70.7109ZM236.227 63.416L236.262 66.2812H233.432C232.764 66.2812 232.184 66.3574 231.691 66.5098C231.199 66.6621 230.795 66.8789 230.479 67.1602C230.162 67.4297 229.928 67.7461 229.775 68.1094C229.635 68.4727 229.564 68.8711 229.564 69.3047C229.564 69.7383 229.664 70.1309 229.863 70.4824C230.062 70.8223 230.35 71.0918 230.725 71.291C231.1 71.4785 231.539 71.5723 232.043 71.5723C232.805 71.5723 233.467 71.4199 234.029 71.1152C234.592 70.8105 235.025 70.4355 235.33 69.9902C235.646 69.5449 235.811 69.123 235.822 68.7246L237.158 70.8691C236.971 71.3496 236.713 71.8477 236.385 72.3633C236.068 72.8789 235.664 73.3652 235.172 73.8223C234.68 74.2676 234.088 74.6367 233.396 74.9297C232.705 75.2109 231.885 75.3516 230.936 75.3516C229.729 75.3516 228.633 75.1113 227.648 74.6309C226.676 74.1387 225.902 73.4648 225.328 72.6094C224.766 71.7422 224.484 70.7578 224.484 69.6562C224.484 68.6602 224.672 67.7754 225.047 67.002C225.422 66.2285 225.973 65.5781 226.699 65.0508C227.438 64.5117 228.357 64.1074 229.459 63.8379C230.561 63.5566 231.838 63.416 233.291 63.416H236.227ZM255.791 70.8516V48H260.889V75H256.301L255.791 70.8516ZM243.768 65.7188V65.3496C243.768 63.8965 243.932 62.5781 244.26 61.3945C244.588 60.1992 245.068 59.1738 245.701 58.3184C246.334 57.4629 247.113 56.8008 248.039 56.332C248.965 55.8633 250.02 55.6289 251.203 55.6289C252.316 55.6289 253.289 55.8633 254.121 56.332C254.965 56.8008 255.68 57.4688 256.266 58.3359C256.863 59.1914 257.344 60.2051 257.707 61.377C258.07 62.5371 258.334 63.8086 258.498 65.1914V66C258.334 67.3242 258.07 68.5547 257.707 69.6914C257.344 70.8281 256.863 71.8242 256.266 72.6797C255.68 73.5234 254.965 74.1797 254.121 74.6484C253.277 75.1172 252.293 75.3516 251.168 75.3516C249.984 75.3516 248.93 75.1113 248.004 74.6309C247.09 74.1504 246.316 73.4766 245.684 72.6094C245.062 71.7422 244.588 70.7227 244.26 69.5508C243.932 68.3789 243.768 67.1016 243.768 65.7188ZM248.83 65.3496V65.7188C248.83 66.5039 248.889 67.2363 249.006 67.916C249.135 68.5957 249.34 69.1992 249.621 69.7266C249.914 70.2422 250.289 70.6465 250.746 70.9395C251.215 71.2207 251.783 71.3613 252.451 71.3613C253.318 71.3613 254.033 71.168 254.596 70.7812C255.158 70.3828 255.586 69.8379 255.879 69.1465C256.184 68.4551 256.359 67.6582 256.406 66.7559V64.4531C256.371 63.7148 256.266 63.0527 256.09 62.4668C255.926 61.8691 255.68 61.3594 255.352 60.9375C255.035 60.5156 254.637 60.1875 254.156 59.9531C253.688 59.7188 253.131 59.6016 252.486 59.6016C251.83 59.6016 251.268 59.7539 250.799 60.0586C250.33 60.3516 249.949 60.7559 249.656 61.2715C249.375 61.7871 249.164 62.3965 249.023 63.0996C248.895 63.791 248.83 64.541 248.83 65.3496ZM275.109 70.7109V62.2383C275.109 61.6289 275.01 61.1074 274.811 60.6738C274.611 60.2285 274.301 59.8828 273.879 59.6367C273.469 59.3906 272.936 59.2676 272.279 59.2676C271.717 59.2676 271.23 59.3672 270.82 59.5664C270.41 59.7539 270.094 60.0293 269.871 60.3926C269.648 60.7441 269.537 61.1602 269.537 61.6406H264.475C264.475 60.832 264.662 60.0645 265.037 59.3379C265.412 58.6113 265.957 57.9727 266.672 57.4219C267.387 56.8594 268.236 56.4199 269.221 56.1035C270.217 55.7871 271.33 55.6289 272.561 55.6289C274.037 55.6289 275.35 55.875 276.498 56.3672C277.646 56.8594 278.549 57.5977 279.205 58.582C279.873 59.5664 280.207 60.7969 280.207 62.2734V70.4121C280.207 71.4551 280.271 72.3105 280.4 72.9785C280.529 73.6348 280.717 74.209 280.963 74.7012V75H275.848C275.602 74.4844 275.414 73.8398 275.285 73.0664C275.168 72.2812 275.109 71.4961 275.109 70.7109ZM275.777 63.416L275.812 66.2812H272.982C272.314 66.2812 271.734 66.3574 271.242 66.5098C270.75 66.6621 270.346 66.8789 270.029 67.1602C269.713 67.4297 269.479 67.7461 269.326 68.1094C269.186 68.4727 269.115 68.8711 269.115 69.3047C269.115 69.7383 269.215 70.1309 269.414 70.4824C269.613 70.8223 269.9 71.0918 270.275 71.291C270.65 71.4785 271.09 71.5723 271.594 71.5723C272.355 71.5723 273.018 71.4199 273.58 71.1152C274.143 70.8105 274.576 70.4355 274.881 69.9902C275.197 69.5449 275.361 69.123 275.373 68.7246L276.709 70.8691C276.521 71.3496 276.264 71.8477 275.936 72.3633C275.619 72.8789 275.215 73.3652 274.723 73.8223C274.23 74.2676 273.639 74.6367 272.947 74.9297C272.256 75.2109 271.436 75.3516 270.486 75.3516C269.279 75.3516 268.184 75.1113 267.199 74.6309C266.227 74.1387 265.453 73.4648 264.879 72.6094C264.316 71.7422 264.035 70.7578 264.035 69.6562C264.035 68.6602 264.223 67.7754 264.598 67.002C264.973 66.2285 265.523 65.5781 266.25 65.0508C266.988 64.5117 267.908 64.1074 269.01 63.8379C270.111 63.5566 271.389 63.416 272.842 63.416H275.777Z" fill="#888888"/>
<path d="M116.543 129.418C116.543 128.798 116.452 128.242 116.27 127.75C116.087 127.24 115.75 126.766 115.258 126.328C114.766 125.891 114.055 125.453 113.125 125.016C112.214 124.56 111.01 124.086 109.516 123.594C107.766 123.01 106.079 122.354 104.457 121.625C102.835 120.878 101.385 120.012 100.109 119.027C98.8333 118.025 97.8216 116.858 97.0742 115.527C96.3268 114.178 95.9531 112.611 95.9531 110.824C95.9531 109.111 96.3359 107.57 97.1016 106.203C97.8672 104.818 98.9336 103.642 100.301 102.676C101.686 101.691 103.309 100.944 105.168 100.434C107.027 99.9049 109.06 99.6406 111.266 99.6406C114.182 99.6406 116.753 100.151 118.977 101.172C121.219 102.174 122.969 103.605 124.227 105.465C125.503 107.306 126.141 109.484 126.141 112H116.598C116.598 110.997 116.388 110.113 115.969 109.348C115.568 108.582 114.957 107.98 114.137 107.543C113.316 107.105 112.286 106.887 111.047 106.887C109.844 106.887 108.832 107.069 108.012 107.434C107.191 107.798 106.572 108.29 106.152 108.91C105.733 109.512 105.523 110.177 105.523 110.906C105.523 111.508 105.688 112.055 106.016 112.547C106.362 113.021 106.845 113.467 107.465 113.887C108.103 114.306 108.868 114.707 109.762 115.09C110.673 115.473 111.694 115.846 112.824 116.211C114.939 116.885 116.816 117.642 118.457 118.48C120.116 119.301 121.51 120.24 122.641 121.297C123.789 122.336 124.655 123.521 125.238 124.852C125.84 126.182 126.141 127.686 126.141 129.363C126.141 131.15 125.794 132.736 125.102 134.121C124.409 135.507 123.415 136.682 122.121 137.648C120.827 138.596 119.277 139.316 117.473 139.809C115.668 140.301 113.654 140.547 111.43 140.547C109.388 140.547 107.374 140.292 105.387 139.781C103.418 139.253 101.632 138.451 100.027 137.375C98.4232 136.281 97.138 134.887 96.1719 133.191C95.224 131.478 94.75 129.445 94.75 127.094H104.375C104.375 128.26 104.53 129.245 104.84 130.047C105.15 130.849 105.605 131.496 106.207 131.988C106.809 132.462 107.547 132.809 108.422 133.027C109.297 133.228 110.299 133.328 111.43 133.328C112.651 133.328 113.635 133.155 114.383 132.809C115.13 132.444 115.677 131.97 116.023 131.387C116.37 130.785 116.543 130.129 116.543 129.418ZM139.949 116.676V140H130.734V110.414H139.375L139.949 116.676ZM138.828 124.195L136.723 124.25C136.723 122.172 136.969 120.258 137.461 118.508C137.953 116.758 138.682 115.236 139.648 113.941C140.615 112.647 141.799 111.645 143.203 110.934C144.625 110.223 146.266 109.867 148.125 109.867C149.419 109.867 150.595 110.068 151.652 110.469C152.71 110.852 153.621 111.462 154.387 112.301C155.152 113.121 155.736 114.197 156.137 115.527C156.556 116.84 156.766 118.417 156.766 120.258V140H147.551V121.434C147.551 120.176 147.405 119.228 147.113 118.59C146.84 117.952 146.439 117.523 145.91 117.305C145.382 117.086 144.734 116.977 143.969 116.977C143.167 116.977 142.447 117.159 141.809 117.523C141.171 117.888 140.624 118.398 140.168 119.055C139.73 119.693 139.393 120.449 139.156 121.324C138.938 122.199 138.828 123.156 138.828 124.195ZM155.727 124.195L153.156 124.25C153.156 122.172 153.384 120.258 153.84 118.508C154.314 116.758 155.016 115.236 155.945 113.941C156.893 112.647 158.069 111.645 159.473 110.934C160.876 110.223 162.508 109.867 164.367 109.867C165.716 109.867 166.956 110.068 168.086 110.469C169.216 110.87 170.191 111.517 171.012 112.41C171.832 113.303 172.47 114.488 172.926 115.965C173.382 117.423 173.609 119.228 173.609 121.379V140H164.367V121.379C164.367 120.158 164.221 119.237 163.93 118.617C163.656 117.979 163.255 117.551 162.727 117.332C162.198 117.095 161.569 116.977 160.84 116.977C159.965 116.977 159.208 117.159 158.57 117.523C157.932 117.888 157.395 118.398 156.957 119.055C156.538 119.693 156.228 120.449 156.027 121.324C155.827 122.199 155.727 123.156 155.727 124.195ZM194.254 132.562V120.367C194.254 119.529 194.135 118.809 193.898 118.207C193.661 117.605 193.288 117.141 192.777 116.812C192.267 116.466 191.583 116.293 190.727 116.293C190.034 116.293 189.441 116.411 188.949 116.648C188.457 116.885 188.083 117.241 187.828 117.715C187.573 118.189 187.445 118.79 187.445 119.52H178.23C178.23 118.152 178.531 116.885 179.133 115.719C179.753 114.534 180.628 113.504 181.758 112.629C182.906 111.754 184.273 111.079 185.859 110.605C187.464 110.113 189.25 109.867 191.219 109.867C193.57 109.867 195.667 110.259 197.508 111.043C199.367 111.827 200.835 113.003 201.91 114.57C202.986 116.12 203.523 118.07 203.523 120.422V132.535C203.523 134.467 203.633 135.935 203.852 136.938C204.07 137.922 204.38 138.788 204.781 139.535V140H195.539C195.102 139.089 194.773 137.977 194.555 136.664C194.354 135.333 194.254 133.966 194.254 132.562ZM195.375 121.926L195.43 126.848H191.355C190.499 126.848 189.77 126.966 189.168 127.203C188.585 127.44 188.111 127.768 187.746 128.188C187.4 128.589 187.145 129.044 186.98 129.555C186.835 130.065 186.762 130.603 186.762 131.168C186.762 131.715 186.889 132.207 187.145 132.645C187.418 133.064 187.783 133.392 188.238 133.629C188.694 133.866 189.204 133.984 189.77 133.984C190.79 133.984 191.656 133.793 192.367 133.41C193.096 133.009 193.652 132.526 194.035 131.961C194.418 131.396 194.609 130.867 194.609 130.375L196.633 134.148C196.268 134.878 195.849 135.616 195.375 136.363C194.919 137.111 194.345 137.803 193.652 138.441C192.978 139.061 192.148 139.572 191.164 139.973C190.18 140.355 188.986 140.547 187.582 140.547C185.759 140.547 184.082 140.173 182.551 139.426C181.038 138.678 179.826 137.639 178.914 136.309C178.003 134.96 177.547 133.41 177.547 131.66C177.547 130.129 177.82 128.762 178.367 127.559C178.932 126.355 179.78 125.335 180.91 124.496C182.04 123.658 183.48 123.02 185.23 122.582C186.98 122.145 189.04 121.926 191.41 121.926H195.375ZM217.934 117.742V140H208.719V110.414H217.332L217.934 117.742ZM226.684 110.195L226.52 118.754C226.155 118.717 225.663 118.672 225.043 118.617C224.423 118.562 223.904 118.535 223.484 118.535C222.409 118.535 221.479 118.663 220.695 118.918C219.93 119.155 219.292 119.52 218.781 120.012C218.289 120.486 217.924 121.087 217.688 121.816C217.469 122.546 217.368 123.393 217.387 124.359L215.719 123.266C215.719 121.279 215.91 119.474 216.293 117.852C216.694 116.211 217.259 114.798 217.988 113.613C218.717 112.41 219.602 111.49 220.641 110.852C221.68 110.195 222.846 109.867 224.141 109.867C224.596 109.867 225.043 109.895 225.48 109.949C225.936 110.004 226.337 110.086 226.684 110.195ZM246.809 110.414V116.812H228.98V110.414H246.809ZM232.727 103.059H241.941V130.348C241.941 131.132 242.033 131.742 242.215 132.18C242.397 132.599 242.707 132.9 243.145 133.082C243.6 133.246 244.202 133.328 244.949 133.328C245.478 133.328 245.915 133.319 246.262 133.301C246.608 133.264 246.936 133.219 247.246 133.164V139.754C246.462 140.009 245.642 140.201 244.785 140.328C243.928 140.474 243.017 140.547 242.051 140.547C240.082 140.547 238.396 140.237 236.992 139.617C235.607 138.997 234.549 138.022 233.82 136.691C233.091 135.361 232.727 133.629 232.727 131.496V103.059ZM269.613 100.188H277.434L286.32 127.887L295.207 100.188H303.027L289.492 140H283.148L269.613 100.188ZM264.855 100.188H272.949L274.453 130.703V140H264.855V100.188ZM299.691 100.188H307.812V140H298.188V130.703L299.691 100.188ZM328.895 132.562V120.367C328.895 119.529 328.776 118.809 328.539 118.207C328.302 117.605 327.928 117.141 327.418 116.812C326.908 116.466 326.224 116.293 325.367 116.293C324.674 116.293 324.082 116.411 323.59 116.648C323.098 116.885 322.724 117.241 322.469 117.715C322.214 118.189 322.086 118.79 322.086 119.52H312.871C312.871 118.152 313.172 116.885 313.773 115.719C314.393 114.534 315.268 113.504 316.398 112.629C317.547 111.754 318.914 111.079 320.5 110.605C322.104 110.113 323.891 109.867 325.859 109.867C328.211 109.867 330.307 110.259 332.148 111.043C334.008 111.827 335.475 113.003 336.551 114.57C337.626 116.12 338.164 118.07 338.164 120.422V132.535C338.164 134.467 338.273 135.935 338.492 136.938C338.711 137.922 339.021 138.788 339.422 139.535V140H330.18C329.742 139.089 329.414 137.977 329.195 136.664C328.995 135.333 328.895 133.966 328.895 132.562ZM330.016 121.926L330.07 126.848H325.996C325.139 126.848 324.41 126.966 323.809 127.203C323.225 127.44 322.751 127.768 322.387 128.188C322.04 128.589 321.785 129.044 321.621 129.555C321.475 130.065 321.402 130.603 321.402 131.168C321.402 131.715 321.53 132.207 321.785 132.645C322.059 133.064 322.423 133.392 322.879 133.629C323.335 133.866 323.845 133.984 324.41 133.984C325.431 133.984 326.297 133.793 327.008 133.41C327.737 133.009 328.293 132.526 328.676 131.961C329.059 131.396 329.25 130.867 329.25 130.375L331.273 134.148C330.909 134.878 330.49 135.616 330.016 136.363C329.56 137.111 328.986 137.803 328.293 138.441C327.618 139.061 326.789 139.572 325.805 139.973C324.82 140.355 323.626 140.547 322.223 140.547C320.4 140.547 318.723 140.173 317.191 139.426C315.678 138.678 314.466 137.639 313.555 136.309C312.643 134.96 312.188 133.41 312.188 131.66C312.188 130.129 312.461 128.762 313.008 127.559C313.573 126.355 314.421 125.335 315.551 124.496C316.681 123.658 318.121 123.02 319.871 122.582C321.621 122.145 323.681 121.926 326.051 121.926H330.016ZM355.773 133.438C356.63 133.438 357.359 133.283 357.961 132.973C358.581 132.645 359.046 132.189 359.355 131.605C359.684 131.004 359.839 130.284 359.82 129.445H368.488C368.507 131.669 367.96 133.62 366.848 135.297C365.754 136.956 364.259 138.25 362.363 139.18C360.486 140.091 358.362 140.547 355.992 140.547C353.677 140.547 351.654 140.173 349.922 139.426C348.19 138.66 346.741 137.603 345.574 136.254C344.426 134.887 343.56 133.292 342.977 131.469C342.411 129.646 342.129 127.668 342.129 125.535V124.906C342.129 122.773 342.411 120.796 342.977 118.973C343.56 117.132 344.426 115.536 345.574 114.188C346.741 112.82 348.181 111.763 349.895 111.016C351.626 110.25 353.641 109.867 355.938 109.867C358.398 109.867 360.568 110.332 362.445 111.262C364.341 112.191 365.827 113.54 366.902 115.309C367.978 117.077 368.507 119.219 368.488 121.734H359.82C359.839 120.841 359.702 120.039 359.41 119.328C359.118 118.617 358.663 118.052 358.043 117.633C357.441 117.195 356.667 116.977 355.719 116.977C354.771 116.977 354.005 117.186 353.422 117.605C352.839 118.025 352.392 118.608 352.082 119.355C351.79 120.085 351.59 120.923 351.48 121.871C351.389 122.819 351.344 123.831 351.344 124.906V125.535C351.344 126.629 351.389 127.659 351.48 128.625C351.59 129.573 351.799 130.411 352.109 131.141C352.419 131.852 352.866 132.417 353.449 132.836C354.033 133.237 354.807 133.438 355.773 133.438ZM381.449 98V140H372.234V98H381.449ZM380.355 124.195L378.195 124.25C378.195 122.172 378.451 120.258 378.961 118.508C379.471 116.758 380.201 115.236 381.148 113.941C382.096 112.647 383.236 111.645 384.566 110.934C385.897 110.223 387.374 109.867 388.996 109.867C390.454 109.867 391.785 110.077 392.988 110.496C394.21 110.915 395.258 111.59 396.133 112.52C397.026 113.449 397.71 114.661 398.184 116.156C398.676 117.651 398.922 119.474 398.922 121.625V140H389.652V121.57C389.652 120.367 389.479 119.438 389.133 118.781C388.805 118.107 388.331 117.642 387.711 117.387C387.091 117.113 386.335 116.977 385.441 116.977C384.366 116.977 383.491 117.159 382.816 117.523C382.142 117.888 381.622 118.398 381.258 119.055C380.911 119.693 380.674 120.449 380.547 121.324C380.419 122.199 380.355 123.156 380.355 124.195ZM413.77 110.414V140H404.527V110.414H413.77ZM403.98 102.785C403.98 101.473 404.454 100.397 405.402 99.5586C406.35 98.7201 407.581 98.3008 409.094 98.3008C410.607 98.3008 411.837 98.7201 412.785 99.5586C413.733 100.397 414.207 101.473 414.207 102.785C414.207 104.098 413.733 105.173 412.785 106.012C411.837 106.85 410.607 107.27 409.094 107.27C407.581 107.27 406.35 106.85 405.402 106.012C404.454 105.173 403.98 104.098 403.98 102.785ZM428.508 116.73V140H419.293V110.414H427.934L428.508 116.73ZM427.414 124.195L425.254 124.25C425.254 121.99 425.527 119.975 426.074 118.207C426.621 116.421 427.396 114.908 428.398 113.668C429.401 112.428 430.595 111.49 431.98 110.852C433.384 110.195 434.943 109.867 436.656 109.867C438.023 109.867 439.272 110.068 440.402 110.469C441.551 110.87 442.535 111.517 443.355 112.41C444.194 113.303 444.832 114.488 445.27 115.965C445.725 117.423 445.953 119.228 445.953 121.379V140H436.684V121.352C436.684 120.167 436.52 119.264 436.191 118.645C435.863 118.007 435.389 117.569 434.77 117.332C434.15 117.095 433.393 116.977 432.5 116.977C431.552 116.977 430.75 117.159 430.094 117.523C429.438 117.888 428.909 118.398 428.508 119.055C428.125 119.693 427.842 120.449 427.66 121.324C427.496 122.199 427.414 123.156 427.414 124.195ZM465.395 140.547C462.988 140.547 460.837 140.173 458.941 139.426C457.046 138.66 455.441 137.612 454.129 136.281C452.835 134.951 451.841 133.419 451.148 131.688C450.474 129.956 450.137 128.124 450.137 126.191V125.152C450.137 122.983 450.438 120.978 451.039 119.137C451.641 117.277 452.534 115.655 453.719 114.27C454.904 112.884 456.389 111.809 458.176 111.043C459.962 110.259 462.04 109.867 464.41 109.867C466.507 109.867 468.384 110.204 470.043 110.879C471.702 111.553 473.105 112.52 474.254 113.777C475.421 115.035 476.305 116.557 476.906 118.344C477.526 120.13 477.836 122.135 477.836 124.359V128.105H453.664V122.336H468.84V121.625C468.858 120.641 468.685 119.802 468.32 119.109C467.974 118.417 467.464 117.888 466.789 117.523C466.115 117.159 465.294 116.977 464.328 116.977C463.326 116.977 462.496 117.195 461.84 117.633C461.202 118.07 460.701 118.672 460.336 119.438C459.99 120.185 459.743 121.051 459.598 122.035C459.452 123.02 459.379 124.059 459.379 125.152V126.191C459.379 127.285 459.525 128.279 459.816 129.172C460.126 130.065 460.564 130.831 461.129 131.469C461.712 132.089 462.405 132.572 463.207 132.918C464.027 133.264 464.957 133.438 465.996 133.438C467.254 133.438 468.493 133.201 469.715 132.727C470.936 132.253 471.984 131.469 472.859 130.375L477.043 135.352C476.441 136.208 475.585 137.038 474.473 137.84C473.379 138.642 472.066 139.298 470.535 139.809C469.004 140.301 467.29 140.547 465.395 140.547Z" fill="black"/>
<rect x="93" y="178" width="917" height="77" rx="10" fill="#D3D3D3"/>
<rect x="111" y="196" width="91" height="41" rx="3" fill="#424242"/>
<rect x="111" y="196" width="91" height="41" rx="3" stroke="#424242" stroke-width="4"/>
<path d="M134.141 210.203H139.177C140.161 210.203 141.017 210.35 141.743 210.643C142.47 210.936 143.029 211.369 143.422 211.943C143.82 212.518 144.02 213.227 144.02 214.07C144.02 214.803 143.905 215.415 143.677 215.907C143.448 216.399 143.129 216.807 142.719 217.129C142.314 217.445 141.843 217.706 141.304 217.911L140.293 218.482H136.065L136.048 216.101H139.177C139.569 216.101 139.895 216.03 140.152 215.89C140.41 215.749 140.604 215.55 140.732 215.292C140.867 215.028 140.935 214.715 140.935 214.352C140.935 213.982 140.867 213.666 140.732 213.402C140.598 213.139 140.398 212.937 140.135 212.796C139.877 212.655 139.558 212.585 139.177 212.585H137.226V223H134.141V210.203ZM141.146 223L138.315 217.34L141.585 217.322L144.45 222.868V223H141.146ZM150.348 223.176C149.574 223.176 148.883 223.056 148.273 222.815C147.664 222.569 147.148 222.232 146.727 221.805C146.311 221.377 145.991 220.885 145.769 220.328C145.552 219.771 145.443 219.183 145.443 218.562V218.228C145.443 217.53 145.54 216.886 145.733 216.294C145.927 215.696 146.214 215.175 146.595 214.729C146.976 214.284 147.453 213.938 148.027 213.692C148.602 213.44 149.27 213.314 150.031 213.314C150.705 213.314 151.309 213.423 151.842 213.64C152.375 213.856 152.826 214.167 153.195 214.571C153.57 214.976 153.854 215.465 154.048 216.039C154.247 216.613 154.347 217.258 154.347 217.973V219.177H146.577V217.322H151.455V217.094C151.461 216.777 151.405 216.508 151.288 216.285C151.177 216.062 151.013 215.893 150.796 215.775C150.579 215.658 150.315 215.6 150.005 215.6C149.683 215.6 149.416 215.67 149.205 215.811C149 215.951 148.839 216.145 148.722 216.391C148.61 216.631 148.531 216.909 148.484 217.226C148.438 217.542 148.414 217.876 148.414 218.228V218.562C148.414 218.913 148.461 219.232 148.555 219.52C148.654 219.807 148.795 220.053 148.977 220.258C149.164 220.457 149.387 220.612 149.645 220.724C149.908 220.835 150.207 220.891 150.541 220.891C150.945 220.891 151.344 220.814 151.736 220.662C152.129 220.51 152.466 220.258 152.747 219.906L154.092 221.506C153.898 221.781 153.623 222.048 153.266 222.306C152.914 222.563 152.492 222.774 152 222.938C151.508 223.097 150.957 223.176 150.348 223.176ZM160.49 220.609V216.689C160.49 216.42 160.452 216.188 160.376 215.995C160.3 215.802 160.18 215.652 160.016 215.547C159.852 215.436 159.632 215.38 159.356 215.38C159.134 215.38 158.943 215.418 158.785 215.494C158.627 215.57 158.507 215.685 158.425 215.837C158.343 215.989 158.302 216.183 158.302 216.417H155.34C155.34 215.978 155.437 215.57 155.63 215.195C155.829 214.814 156.11 214.483 156.474 214.202C156.843 213.921 157.282 213.704 157.792 213.552C158.308 213.394 158.882 213.314 159.515 213.314C160.271 213.314 160.944 213.44 161.536 213.692C162.134 213.944 162.605 214.322 162.951 214.826C163.297 215.324 163.47 215.951 163.47 216.707V220.601C163.47 221.222 163.505 221.693 163.575 222.016C163.646 222.332 163.745 222.61 163.874 222.851V223H160.903C160.763 222.707 160.657 222.35 160.587 221.928C160.522 221.5 160.49 221.061 160.49 220.609ZM160.851 217.19L160.868 218.772H159.559C159.283 218.772 159.049 218.811 158.855 218.887C158.668 218.963 158.516 219.068 158.398 219.203C158.287 219.332 158.205 219.479 158.152 219.643C158.105 219.807 158.082 219.979 158.082 220.161C158.082 220.337 158.123 220.495 158.205 220.636C158.293 220.771 158.41 220.876 158.557 220.952C158.703 221.028 158.867 221.066 159.049 221.066C159.377 221.066 159.655 221.005 159.884 220.882C160.118 220.753 160.297 220.598 160.42 220.416C160.543 220.234 160.604 220.064 160.604 219.906L161.255 221.119C161.138 221.354 161.003 221.591 160.851 221.831C160.704 222.071 160.52 222.294 160.297 222.499C160.08 222.698 159.813 222.862 159.497 222.991C159.181 223.114 158.797 223.176 158.346 223.176C157.76 223.176 157.221 223.056 156.729 222.815C156.242 222.575 155.853 222.241 155.56 221.813C155.267 221.38 155.12 220.882 155.12 220.319C155.12 219.827 155.208 219.388 155.384 219.001C155.565 218.614 155.838 218.286 156.201 218.017C156.564 217.747 157.027 217.542 157.59 217.401C158.152 217.261 158.814 217.19 159.576 217.19H160.851ZM169.13 220.891C169.405 220.891 169.64 220.841 169.833 220.741C170.032 220.636 170.182 220.489 170.281 220.302C170.387 220.108 170.437 219.877 170.431 219.607H173.217C173.223 220.322 173.047 220.949 172.689 221.488C172.338 222.021 171.857 222.438 171.248 222.736C170.645 223.029 169.962 223.176 169.2 223.176C168.456 223.176 167.806 223.056 167.249 222.815C166.692 222.569 166.227 222.229 165.852 221.796C165.482 221.356 165.204 220.844 165.017 220.258C164.835 219.672 164.744 219.036 164.744 218.351V218.148C164.744 217.463 164.835 216.827 165.017 216.241C165.204 215.649 165.482 215.137 165.852 214.703C166.227 214.264 166.689 213.924 167.24 213.684C167.797 213.438 168.444 213.314 169.183 213.314C169.974 213.314 170.671 213.464 171.274 213.763C171.884 214.062 172.361 214.495 172.707 215.063C173.053 215.632 173.223 216.32 173.217 217.129H170.431C170.437 216.842 170.393 216.584 170.299 216.355C170.205 216.127 170.059 215.945 169.859 215.811C169.666 215.67 169.417 215.6 169.112 215.6C168.808 215.6 168.562 215.667 168.374 215.802C168.187 215.937 168.043 216.124 167.943 216.364C167.85 216.599 167.785 216.868 167.75 217.173C167.721 217.478 167.706 217.803 167.706 218.148V218.351C167.706 218.702 167.721 219.033 167.75 219.344C167.785 219.648 167.853 219.918 167.952 220.152C168.052 220.381 168.195 220.562 168.383 220.697C168.57 220.826 168.819 220.891 169.13 220.891ZM179.492 213.49V215.547H173.762V213.49H179.492ZM174.966 211.126H177.928V219.897C177.928 220.149 177.957 220.346 178.016 220.486C178.074 220.621 178.174 220.718 178.314 220.776C178.461 220.829 178.654 220.855 178.895 220.855C179.064 220.855 179.205 220.853 179.316 220.847C179.428 220.835 179.533 220.82 179.633 220.803V222.921C179.381 223.003 179.117 223.064 178.842 223.105C178.566 223.152 178.273 223.176 177.963 223.176C177.33 223.176 176.788 223.076 176.337 222.877C175.892 222.678 175.552 222.364 175.317 221.937C175.083 221.509 174.966 220.952 174.966 220.267V211.126Z" fill="white"/>
<rect x="222" y="196" width="104" height="41" rx="3" fill="#424242"/>
<rect x="222" y="196" width="104" height="41" rx="3" stroke="#424242" stroke-width="4"/>
<path d="M253.812 220.627V223H247.343V220.627H253.812ZM248.441 210.203V223H245.356V210.203H248.441ZM259.911 220.609V216.689C259.911 216.42 259.873 216.188 259.797 215.995C259.721 215.802 259.601 215.652 259.437 215.547C259.272 215.436 259.053 215.38 258.777 215.38C258.555 215.38 258.364 215.418 258.206 215.494C258.048 215.57 257.928 215.685 257.846 215.837C257.764 215.989 257.723 216.183 257.723 216.417H254.761C254.761 215.978 254.857 215.57 255.051 215.195C255.25 214.814 255.531 214.483 255.895 214.202C256.264 213.921 256.703 213.704 257.213 213.552C257.729 213.394 258.303 213.314 258.936 213.314C259.691 213.314 260.365 213.44 260.957 213.692C261.555 213.944 262.026 214.322 262.372 214.826C262.718 215.324 262.891 215.951 262.891 216.707V220.601C262.891 221.222 262.926 221.693 262.996 222.016C263.066 222.332 263.166 222.61 263.295 222.851V223H260.324C260.184 222.707 260.078 222.35 260.008 221.928C259.943 221.5 259.911 221.061 259.911 220.609ZM260.271 217.19L260.289 218.772H258.979C258.704 218.772 258.47 218.811 258.276 218.887C258.089 218.963 257.937 219.068 257.819 219.203C257.708 219.332 257.626 219.479 257.573 219.643C257.526 219.807 257.503 219.979 257.503 220.161C257.503 220.337 257.544 220.495 257.626 220.636C257.714 220.771 257.831 220.876 257.978 220.952C258.124 221.028 258.288 221.066 258.47 221.066C258.798 221.066 259.076 221.005 259.305 220.882C259.539 220.753 259.718 220.598 259.841 220.416C259.964 220.234 260.025 220.064 260.025 219.906L260.676 221.119C260.559 221.354 260.424 221.591 260.271 221.831C260.125 222.071 259.94 222.294 259.718 222.499C259.501 222.698 259.234 222.862 258.918 222.991C258.602 223.114 258.218 223.176 257.767 223.176C257.181 223.176 256.642 223.056 256.149 222.815C255.663 222.575 255.273 222.241 254.98 221.813C254.688 221.38 254.541 220.882 254.541 220.319C254.541 219.827 254.629 219.388 254.805 219.001C254.986 218.614 255.259 218.286 255.622 218.017C255.985 217.747 256.448 217.542 257.011 217.401C257.573 217.261 258.235 217.19 258.997 217.19H260.271ZM267.522 215.846V223H264.561V213.49H267.329L267.522 215.846ZM270.335 213.42L270.282 216.171C270.165 216.159 270.007 216.145 269.808 216.127C269.608 216.109 269.441 216.101 269.307 216.101C268.961 216.101 268.662 216.142 268.41 216.224C268.164 216.3 267.959 216.417 267.795 216.575C267.637 216.728 267.52 216.921 267.443 217.155C267.373 217.39 267.341 217.662 267.347 217.973L266.811 217.621C266.811 216.982 266.872 216.402 266.995 215.881C267.124 215.354 267.306 214.899 267.54 214.519C267.774 214.132 268.059 213.836 268.393 213.631C268.727 213.42 269.102 213.314 269.518 213.314C269.664 213.314 269.808 213.323 269.948 213.341C270.095 213.358 270.224 213.385 270.335 213.42ZM276.03 220.609V216.689C276.03 216.42 275.992 216.188 275.916 215.995C275.84 215.802 275.72 215.652 275.556 215.547C275.392 215.436 275.172 215.38 274.896 215.38C274.674 215.38 274.483 215.418 274.325 215.494C274.167 215.57 274.047 215.685 273.965 215.837C273.883 215.989 273.842 216.183 273.842 216.417H270.88C270.88 215.978 270.977 215.57 271.17 215.195C271.369 214.814 271.65 214.483 272.014 214.202C272.383 213.921 272.822 213.704 273.332 213.552C273.848 213.394 274.422 213.314 275.055 213.314C275.811 213.314 276.484 213.44 277.076 213.692C277.674 213.944 278.146 214.322 278.491 214.826C278.837 215.324 279.01 215.951 279.01 216.707V220.601C279.01 221.222 279.045 221.693 279.115 222.016C279.186 222.332 279.285 222.61 279.414 222.851V223H276.443C276.303 222.707 276.197 222.35 276.127 221.928C276.062 221.5 276.03 221.061 276.03 220.609ZM276.391 217.19L276.408 218.772H275.099C274.823 218.772 274.589 218.811 274.396 218.887C274.208 218.963 274.056 219.068 273.938 219.203C273.827 219.332 273.745 219.479 273.692 219.643C273.646 219.807 273.622 219.979 273.622 220.161C273.622 220.337 273.663 220.495 273.745 220.636C273.833 220.771 273.95 220.876 274.097 220.952C274.243 221.028 274.407 221.066 274.589 221.066C274.917 221.066 275.195 221.005 275.424 220.882C275.658 220.753 275.837 220.598 275.96 220.416C276.083 220.234 276.145 220.064 276.145 219.906L276.795 221.119C276.678 221.354 276.543 221.591 276.391 221.831C276.244 222.071 276.06 222.294 275.837 222.499C275.62 222.698 275.354 222.862 275.037 222.991C274.721 223.114 274.337 223.176 273.886 223.176C273.3 223.176 272.761 223.056 272.269 222.815C271.782 222.575 271.393 222.241 271.1 221.813C270.807 221.38 270.66 220.882 270.66 220.319C270.66 219.827 270.748 219.388 270.924 219.001C271.105 218.614 271.378 218.286 271.741 218.017C272.104 217.747 272.567 217.542 273.13 217.401C273.692 217.261 274.354 217.19 275.116 217.19H276.391ZM283.94 220.97L285.812 213.49H288.933L285.821 223H283.976L283.94 220.97ZM282.833 213.49L284.679 220.97L284.661 223H282.807L279.704 213.49H282.833ZM294.294 223.176C293.521 223.176 292.829 223.056 292.22 222.815C291.61 222.569 291.095 222.232 290.673 221.805C290.257 221.377 289.938 220.885 289.715 220.328C289.498 219.771 289.39 219.183 289.39 218.562V218.228C289.39 217.53 289.486 216.886 289.68 216.294C289.873 215.696 290.16 215.175 290.541 214.729C290.922 214.284 291.399 213.938 291.974 213.692C292.548 213.44 293.216 213.314 293.978 213.314C294.651 213.314 295.255 213.423 295.788 213.64C296.321 213.856 296.772 214.167 297.142 214.571C297.517 214.976 297.801 215.465 297.994 216.039C298.193 216.613 298.293 217.258 298.293 217.973V219.177H290.523V217.322H295.401V217.094C295.407 216.777 295.352 216.508 295.234 216.285C295.123 216.062 294.959 215.893 294.742 215.775C294.525 215.658 294.262 215.6 293.951 215.6C293.629 215.6 293.362 215.67 293.151 215.811C292.946 215.951 292.785 216.145 292.668 216.391C292.557 216.631 292.478 216.909 292.431 217.226C292.384 217.542 292.36 217.876 292.36 218.228V218.562C292.36 218.913 292.407 219.232 292.501 219.52C292.601 219.807 292.741 220.053 292.923 220.258C293.11 220.457 293.333 220.612 293.591 220.724C293.854 220.835 294.153 220.891 294.487 220.891C294.892 220.891 295.29 220.814 295.683 220.662C296.075 220.51 296.412 220.258 296.693 219.906L298.038 221.506C297.845 221.781 297.569 222.048 297.212 222.306C296.86 222.563 296.438 222.774 295.946 222.938C295.454 223.097 294.903 223.176 294.294 223.176ZM302.626 209.5V223H299.655V209.5H302.626Z" fill="white"/>
<rect x="346" y="196" width="94" height="41" rx="3" fill="#424242"/>
<rect x="346" y="196" width="94" height="41" rx="3" stroke="#424242" stroke-width="4"/>
<path d="M370.79 210.203H373.304L376.16 219.106L379.017 210.203H381.53L377.18 223H375.141L370.79 210.203ZM369.261 210.203H371.862L372.346 220.012V223H369.261V210.203ZM380.458 210.203H383.068V223H379.975V220.012L380.458 210.203ZM387.823 221.884L390.284 213.49H393.466L389.643 224.415C389.561 224.655 389.452 224.913 389.317 225.188C389.183 225.47 388.998 225.736 388.764 225.988C388.529 226.24 388.228 226.445 387.858 226.604C387.495 226.762 387.044 226.841 386.505 226.841C386.218 226.841 386.007 226.826 385.872 226.797C385.743 226.773 385.544 226.729 385.274 226.665V224.547C385.351 224.547 385.415 224.547 385.468 224.547C385.526 224.547 385.591 224.547 385.661 224.547C385.978 224.547 386.229 224.515 386.417 224.45C386.61 224.386 386.757 224.292 386.856 224.169C386.962 224.046 387.044 223.896 387.103 223.721L387.823 221.884ZM387.199 213.49L389.071 220.144L389.396 223.281H387.41L384.026 213.49H387.199ZM399.223 220.328C399.223 220.164 399.167 220.023 399.056 219.906C398.95 219.783 398.763 219.672 398.493 219.572C398.224 219.467 397.846 219.361 397.359 219.256C396.896 219.156 396.46 219.024 396.05 218.86C395.646 218.696 395.291 218.497 394.986 218.263C394.682 218.028 394.441 217.75 394.266 217.428C394.096 217.105 394.011 216.736 394.011 216.32C394.011 215.916 394.096 215.535 394.266 215.178C394.441 214.814 394.696 214.495 395.03 214.22C395.37 213.938 395.783 213.719 396.27 213.561C396.756 213.396 397.31 213.314 397.931 213.314C398.786 213.314 399.524 213.446 400.146 213.71C400.767 213.968 401.244 214.331 401.578 214.8C401.918 215.263 402.088 215.799 402.088 216.408H399.126C399.126 216.168 399.085 215.963 399.003 215.793C398.927 215.623 398.801 215.494 398.625 215.406C398.449 215.312 398.215 215.266 397.922 215.266C397.717 215.266 397.529 215.304 397.359 215.38C397.195 215.456 397.063 215.562 396.964 215.696C396.864 215.831 396.814 215.989 396.814 216.171C396.814 216.3 396.844 216.417 396.902 216.522C396.967 216.622 397.063 216.716 397.192 216.804C397.321 216.886 397.485 216.962 397.685 217.032C397.884 217.097 398.124 217.155 398.405 217.208C399.044 217.325 399.642 217.492 400.198 217.709C400.755 217.926 401.206 218.233 401.552 218.632C401.903 219.03 402.079 219.566 402.079 220.24C402.079 220.662 401.982 221.052 401.789 221.409C401.596 221.761 401.317 222.071 400.954 222.341C400.591 222.604 400.154 222.81 399.645 222.956C399.135 223.103 398.561 223.176 397.922 223.176C397.014 223.176 396.246 223.015 395.619 222.692C394.992 222.364 394.518 221.954 394.195 221.462C393.879 220.964 393.721 220.46 393.721 219.95H396.48C396.492 220.243 396.562 220.483 396.691 220.671C396.826 220.858 397.005 220.996 397.228 221.084C397.45 221.172 397.708 221.216 398.001 221.216C398.271 221.216 398.493 221.178 398.669 221.102C398.851 221.025 398.988 220.923 399.082 220.794C399.176 220.659 399.223 220.504 399.223 220.328ZM408.935 226.656V215.485L409.348 213.49H411.914V226.656H408.935ZM403.099 218.333V218.148C403.099 217.428 403.178 216.771 403.336 216.18C403.494 215.582 403.729 215.072 404.039 214.65C404.35 214.223 404.733 213.895 405.19 213.666C405.653 213.432 406.187 213.314 406.79 213.314C407.358 213.314 407.845 213.438 408.249 213.684C408.659 213.93 409.002 214.275 409.277 214.721C409.553 215.16 409.775 215.676 409.945 216.268C410.121 216.859 410.259 217.498 410.358 218.184V218.403C410.259 219.048 410.121 219.657 409.945 220.231C409.775 220.806 409.553 221.315 409.277 221.761C409.002 222.2 408.659 222.546 408.249 222.798C407.839 223.05 407.347 223.176 406.772 223.176C406.175 223.176 405.647 223.056 405.19 222.815C404.733 222.569 404.35 222.229 404.039 221.796C403.729 221.356 403.494 220.844 403.336 220.258C403.178 219.666 403.099 219.024 403.099 218.333ZM406.061 218.148V218.333C406.061 218.69 406.084 219.024 406.131 219.335C406.178 219.64 406.257 219.909 406.368 220.144C406.485 220.378 406.638 220.562 406.825 220.697C407.013 220.826 407.247 220.891 407.528 220.891C407.956 220.891 408.293 220.797 408.539 220.609C408.785 220.422 408.958 220.161 409.058 219.827C409.157 219.487 409.198 219.092 409.181 218.641V217.946C409.187 217.56 409.163 217.22 409.11 216.927C409.058 216.634 408.967 216.391 408.838 216.197C408.715 215.998 408.548 215.849 408.337 215.749C408.126 215.649 407.862 215.6 407.546 215.6C407.271 215.6 407.036 215.664 406.843 215.793C406.655 215.916 406.503 216.092 406.386 216.32C406.274 216.549 406.192 216.818 406.14 217.129C406.087 217.439 406.061 217.779 406.061 218.148ZM416.722 209.5V223H413.751V209.5H416.722Z" fill="white"/>
<rect x="460" y="196" width="102" height="41" rx="3" fill="#424242"/>
<rect x="460" y="196" width="102" height="41" rx="3" stroke="#424242" stroke-width="4"/>
<path d="M488.166 218.658H484.984V216.276H488.166C488.6 216.276 488.951 216.203 489.221 216.057C489.49 215.91 489.687 215.708 489.81 215.45C489.938 215.187 490.003 214.891 490.003 214.562C490.003 214.211 489.938 213.886 489.81 213.587C489.687 213.288 489.49 213.048 489.221 212.866C488.951 212.679 488.6 212.585 488.166 212.585H486.145V223H483.06V210.203H488.166C489.191 210.203 490.073 210.391 490.812 210.766C491.556 211.141 492.127 211.656 492.525 212.312C492.924 212.963 493.123 213.707 493.123 214.545C493.123 215.371 492.924 216.092 492.525 216.707C492.127 217.322 491.556 217.803 490.812 218.148C490.073 218.488 489.191 218.658 488.166 218.658ZM497.702 221.884L500.163 213.49H503.345L499.521 224.415C499.439 224.655 499.331 224.913 499.196 225.188C499.062 225.47 498.877 225.736 498.643 225.988C498.408 226.24 498.106 226.445 497.737 226.604C497.374 226.762 496.923 226.841 496.384 226.841C496.097 226.841 495.886 226.826 495.751 226.797C495.622 226.773 495.423 226.729 495.153 226.665V224.547C495.229 224.547 495.294 224.547 495.347 224.547C495.405 224.547 495.47 224.547 495.54 224.547C495.856 224.547 496.108 224.515 496.296 224.45C496.489 224.386 496.636 224.292 496.735 224.169C496.841 224.046 496.923 223.896 496.981 223.721L497.702 221.884ZM497.078 213.49L498.95 220.144L499.275 223.281H497.289L493.905 213.49H497.078ZM509.128 213.49V215.547H503.397V213.49H509.128ZM504.602 211.126H507.563V219.897C507.563 220.149 507.593 220.346 507.651 220.486C507.71 220.621 507.81 220.718 507.95 220.776C508.097 220.829 508.29 220.855 508.53 220.855C508.7 220.855 508.841 220.853 508.952 220.847C509.063 220.835 509.169 220.82 509.269 220.803V222.921C509.017 223.003 508.753 223.064 508.478 223.105C508.202 223.152 507.909 223.176 507.599 223.176C506.966 223.176 506.424 223.076 505.973 222.877C505.527 222.678 505.188 222.364 504.953 221.937C504.719 221.509 504.602 220.952 504.602 220.267V211.126ZM513.206 209.5V223H510.244V209.5H513.206ZM512.854 217.92L512.16 217.938C512.16 217.27 512.242 216.654 512.406 216.092C512.57 215.529 512.805 215.04 513.109 214.624C513.414 214.208 513.78 213.886 514.208 213.657C514.636 213.429 515.11 213.314 515.632 213.314C516.101 213.314 516.528 213.382 516.915 213.517C517.308 213.651 517.645 213.868 517.926 214.167C518.213 214.466 518.433 214.855 518.585 215.336C518.743 215.816 518.822 216.402 518.822 217.094V223H515.843V217.076C515.843 216.689 515.787 216.391 515.676 216.18C515.57 215.963 515.418 215.813 515.219 215.731C515.02 215.644 514.776 215.6 514.489 215.6C514.144 215.6 513.862 215.658 513.646 215.775C513.429 215.893 513.262 216.057 513.145 216.268C513.033 216.473 512.957 216.716 512.916 216.997C512.875 217.278 512.854 217.586 512.854 217.92ZM520.097 218.342V218.157C520.097 217.46 520.196 216.818 520.396 216.232C520.595 215.641 520.888 215.128 521.274 214.694C521.661 214.261 522.139 213.924 522.707 213.684C523.275 213.438 523.932 213.314 524.676 213.314C525.426 213.314 526.085 213.438 526.653 213.684C527.228 213.924 527.708 214.261 528.095 214.694C528.481 215.128 528.774 215.641 528.974 216.232C529.173 216.818 529.272 217.46 529.272 218.157V218.342C529.272 219.033 529.173 219.675 528.974 220.267C528.774 220.853 528.481 221.365 528.095 221.805C527.708 222.238 527.23 222.575 526.662 222.815C526.094 223.056 525.438 223.176 524.693 223.176C523.949 223.176 523.29 223.056 522.716 222.815C522.142 222.575 521.661 222.238 521.274 221.805C520.888 221.365 520.595 220.853 520.396 220.267C520.196 219.675 520.097 219.033 520.097 218.342ZM523.059 218.157V218.342C523.059 218.699 523.085 219.033 523.138 219.344C523.19 219.654 523.278 219.927 523.401 220.161C523.524 220.39 523.691 220.568 523.902 220.697C524.113 220.826 524.377 220.891 524.693 220.891C525.004 220.891 525.262 220.826 525.467 220.697C525.678 220.568 525.845 220.39 525.968 220.161C526.091 219.927 526.179 219.654 526.231 219.344C526.284 219.033 526.311 218.699 526.311 218.342V218.157C526.311 217.812 526.284 217.486 526.231 217.182C526.179 216.871 526.091 216.599 525.968 216.364C525.845 216.124 525.678 215.937 525.467 215.802C525.256 215.667 524.992 215.6 524.676 215.6C524.365 215.6 524.104 215.667 523.894 215.802C523.688 215.937 523.524 216.124 523.401 216.364C523.278 216.599 523.19 216.871 523.138 217.182C523.085 217.486 523.059 217.812 523.059 218.157ZM533.5 215.521V223H530.538V213.49H533.315L533.5 215.521ZM533.148 217.92L532.454 217.938C532.454 217.211 532.542 216.563 532.718 215.995C532.894 215.421 533.143 214.935 533.465 214.536C533.787 214.138 534.171 213.836 534.616 213.631C535.067 213.42 535.568 213.314 536.119 213.314C536.559 213.314 536.96 213.379 537.323 213.508C537.692 213.637 538.009 213.845 538.272 214.132C538.542 214.419 538.747 214.8 538.888 215.274C539.034 215.743 539.107 216.323 539.107 217.015V223H536.128V217.006C536.128 216.625 536.075 216.335 535.97 216.136C535.864 215.931 535.712 215.79 535.513 215.714C535.313 215.638 535.07 215.6 534.783 215.6C534.479 215.6 534.221 215.658 534.01 215.775C533.799 215.893 533.629 216.057 533.5 216.268C533.377 216.473 533.286 216.716 533.228 216.997C533.175 217.278 533.148 217.586 533.148 217.92Z" fill="white"/>
<rect x="582" y="196" width="83" height="41" rx="3" fill="#424242"/>
<rect x="582" y="196" width="83" height="41" rx="3" stroke="#424242" stroke-width="4"/>
<path d="M610.483 212.893L607.363 223H604.05L608.752 210.203H610.853L610.483 212.893ZM613.067 223L609.938 212.893L609.534 210.203H611.661L616.39 223H613.067ZM612.944 218.228V220.609H606.379V218.228H612.944ZM619.932 221.84L622.48 210.203H624.001L624.827 211.196L622.111 223H620.433L619.932 221.84ZM619.255 210.203L621.408 221.928L620.854 223H618.912L616.196 210.203H619.255ZM626.225 221.866L628.36 210.203H631.41L628.694 223H626.761L626.225 221.866ZM625.1 210.203L627.71 221.91L627.183 223H625.504L622.727 211.179L623.588 210.203H625.1ZM639.215 219.599C639.215 219.399 639.186 219.221 639.127 219.062C639.068 218.898 638.96 218.746 638.802 218.605C638.644 218.465 638.415 218.324 638.116 218.184C637.823 218.037 637.437 217.885 636.956 217.727C636.394 217.539 635.852 217.328 635.33 217.094C634.809 216.854 634.343 216.575 633.933 216.259C633.522 215.937 633.197 215.562 632.957 215.134C632.717 214.7 632.597 214.196 632.597 213.622C632.597 213.071 632.72 212.576 632.966 212.137C633.212 211.691 633.555 211.313 633.994 211.003C634.439 210.687 634.961 210.446 635.559 210.282C636.156 210.112 636.81 210.027 637.519 210.027C638.456 210.027 639.282 210.191 639.997 210.52C640.718 210.842 641.28 211.302 641.685 211.899C642.095 212.491 642.3 213.191 642.3 214H639.232C639.232 213.678 639.165 213.394 639.03 213.147C638.901 212.901 638.705 212.708 638.441 212.567C638.178 212.427 637.847 212.356 637.448 212.356C637.062 212.356 636.736 212.415 636.473 212.532C636.209 212.649 636.01 212.808 635.875 213.007C635.74 213.2 635.673 213.414 635.673 213.648C635.673 213.842 635.726 214.018 635.831 214.176C635.942 214.328 636.098 214.472 636.297 214.606C636.502 214.741 636.748 214.87 637.035 214.993C637.328 215.116 637.656 215.236 638.02 215.354C638.699 215.57 639.303 215.813 639.83 216.083C640.363 216.347 640.812 216.648 641.175 216.988C641.544 217.322 641.822 217.703 642.01 218.131C642.203 218.559 642.3 219.042 642.3 219.581C642.3 220.155 642.188 220.665 641.966 221.11C641.743 221.556 641.424 221.934 641.008 222.244C640.592 222.549 640.094 222.78 639.514 222.938C638.934 223.097 638.286 223.176 637.571 223.176C636.915 223.176 636.268 223.094 635.629 222.93C634.996 222.76 634.422 222.502 633.906 222.156C633.391 221.805 632.978 221.356 632.667 220.812C632.362 220.261 632.21 219.607 632.21 218.852H635.304C635.304 219.227 635.354 219.543 635.453 219.801C635.553 220.059 635.699 220.267 635.893 220.425C636.086 220.577 636.323 220.688 636.604 220.759C636.886 220.823 637.208 220.855 637.571 220.855C637.964 220.855 638.28 220.8 638.521 220.688C638.761 220.571 638.937 220.419 639.048 220.231C639.159 220.038 639.215 219.827 639.215 219.599Z" fill="white"/>
<path d="M1066 0H1348C1356.28 0 1363 6.71573 1363 15V282C1363 290.284 1356.28 297 1348 297H1066V0Z" fill="white"/>
<g filter="url(#filter0_dd_3_61)">
<mask id="path-17-outside-1_3_61" maskUnits="userSpaceOnUse" x="1164.79" y="70.25" width="55" height="105" fill="black">
<rect fill="white" x="1164.79" y="70.25" width="55" height="105"/>
<path d="M1214.11 87.346V87.2816L1214.1 86.9597C1214.01 85.281 1213.67 83.6244 1213.11 82.0416C1212.71 80.8435 1212.03 79.7605 1211.12 78.8873C1210.16 78.0593 1208.93 77.6304 1207.67 77.69C1203.59 77.6713 1199.62 78.9871 1196.36 81.4365C1193.37 83.7604 1191.56 86.9082 1191.56 90.5646C1191.56 91.0744 1191.44 91.5767 1191.21 92.0303C1190.98 92.4839 1190.64 92.8758 1190.23 93.1738C1189.81 93.4717 1189.33 93.6672 1188.83 93.744C1188.32 93.8209 1187.81 93.777 1187.32 93.6159C1186.11 93.2168 1185.03 93.4421 1183.88 94.3691C1182.62 95.3991 1181.38 97.2273 1180.5 99.6928C1178.7 104.727 1178.89 110.823 1181.36 114.531C1181.71 115.059 1181.9 115.679 1181.9 116.314H1186.73C1190.58 116.314 1194.26 117.84 1196.98 120.556C1199.7 123.273 1201.23 126.957 1201.23 130.798V132.954C1203.38 133.714 1205.19 135.208 1206.34 137.172C1207.49 139.137 1207.92 141.446 1207.53 143.691C1207.15 145.936 1205.98 147.973 1204.23 149.441C1202.49 150.909 1200.29 151.714 1198.01 151.714C1195.73 151.714 1193.52 150.909 1191.78 149.441C1190.03 147.973 1188.87 145.936 1188.48 143.691C1188.1 141.446 1188.52 139.137 1189.67 137.172C1190.82 135.208 1192.64 133.714 1194.78 132.954V130.798C1194.78 126.356 1191.18 122.751 1186.73 122.751H1175.46C1175.07 122.751 1174.69 122.681 1174.33 122.545L1174.31 122.584C1173.04 125.127 1172.24 129.35 1172.24 135.626C1172.24 141.156 1174.27 144.271 1176.35 146.054C1178.58 147.973 1181.06 148.501 1181.9 148.501C1182.75 148.501 1183.57 148.84 1184.18 149.443C1184.78 150.047 1185.12 150.866 1185.12 151.719C1185.12 154.088 1186.41 158.227 1189.24 161.781C1192.01 165.225 1195.98 167.813 1201.23 167.813C1204.84 167.813 1208.07 165.798 1210.57 163.178C1211.8 161.89 1212.76 160.558 1213.38 159.463C1213.67 158.978 1213.91 158.47 1214.11 157.944V106.658H1207.12C1206.36 108.806 1204.87 110.615 1202.9 111.768C1200.93 112.921 1198.62 113.341 1196.38 112.956C1194.13 112.571 1192.09 111.405 1190.62 109.663C1189.15 107.922 1188.35 105.717 1188.35 103.439C1188.35 101.161 1189.15 98.957 1190.62 97.2155C1192.09 95.474 1194.13 94.3075 1196.38 93.9224C1198.62 93.5372 1200.93 93.958 1202.9 95.1106C1204.87 96.2631 1206.36 98.0731 1207.12 100.221H1214.11V87.346ZM1194.78 103.439C1194.78 104.293 1195.12 105.112 1195.73 105.715C1196.33 106.319 1197.15 106.658 1198.01 106.658C1198.86 106.658 1199.68 106.319 1200.28 105.715C1200.89 105.112 1201.23 104.293 1201.23 103.439C1201.23 102.586 1200.89 101.767 1200.28 101.163C1199.68 100.56 1198.86 100.221 1198.01 100.221C1197.15 100.221 1196.33 100.56 1195.73 101.163C1195.12 101.767 1194.78 102.586 1194.78 103.439ZM1198.01 138.845C1197.15 138.845 1196.33 139.184 1195.73 139.787C1195.12 140.391 1194.78 141.21 1194.78 142.063C1194.78 142.917 1195.12 143.736 1195.73 144.339C1196.33 144.943 1197.15 145.282 1198.01 145.282C1198.86 145.282 1199.68 144.943 1200.28 144.339C1200.89 143.736 1201.23 142.917 1201.23 142.063C1201.23 141.21 1200.89 140.391 1200.28 139.787C1199.68 139.184 1198.86 138.845 1198.01 138.845Z"/>
</mask>
<path d="M1214.11 87.346V87.2816L1214.1 86.9597C1214.01 85.281 1213.67 83.6244 1213.11 82.0416C1212.71 80.8435 1212.03 79.7605 1211.12 78.8873C1210.16 78.0593 1208.93 77.6304 1207.67 77.69C1203.59 77.6713 1199.62 78.9871 1196.36 81.4365C1193.37 83.7604 1191.56 86.9082 1191.56 90.5646C1191.56 91.0744 1191.44 91.5767 1191.21 92.0303C1190.98 92.4839 1190.64 92.8758 1190.23 93.1738C1189.81 93.4717 1189.33 93.6672 1188.83 93.744C1188.32 93.8209 1187.81 93.777 1187.32 93.6159C1186.11 93.2168 1185.03 93.4421 1183.88 94.3691C1182.62 95.3991 1181.38 97.2273 1180.5 99.6928C1178.7 104.727 1178.89 110.823 1181.36 114.531C1181.71 115.059 1181.9 115.679 1181.9 116.314H1186.73C1190.58 116.314 1194.26 117.84 1196.98 120.556C1199.7 123.273 1201.23 126.957 1201.23 130.798V132.954C1203.38 133.714 1205.19 135.208 1206.34 137.172C1207.49 139.137 1207.92 141.446 1207.53 143.691C1207.15 145.936 1205.98 147.973 1204.23 149.441C1202.49 150.909 1200.29 151.714 1198.01 151.714C1195.73 151.714 1193.52 150.909 1191.78 149.441C1190.03 147.973 1188.87 145.936 1188.48 143.691C1188.1 141.446 1188.52 139.137 1189.67 137.172C1190.82 135.208 1192.64 133.714 1194.78 132.954V130.798C1194.78 126.356 1191.18 122.751 1186.73 122.751H1175.46C1175.07 122.751 1174.69 122.681 1174.33 122.545L1174.31 122.584C1173.04 125.127 1172.24 129.35 1172.24 135.626C1172.24 141.156 1174.27 144.271 1176.35 146.054C1178.58 147.973 1181.06 148.501 1181.9 148.501C1182.75 148.501 1183.57 148.84 1184.18 149.443C1184.78 150.047 1185.12 150.866 1185.12 151.719C1185.12 154.088 1186.41 158.227 1189.24 161.781C1192.01 165.225 1195.98 167.813 1201.23 167.813C1204.84 167.813 1208.07 165.798 1210.57 163.178C1211.8 161.89 1212.76 160.558 1213.38 159.463C1213.67 158.978 1213.91 158.47 1214.11 157.944V106.658H1207.12C1206.36 108.806 1204.87 110.615 1202.9 111.768C1200.93 112.921 1198.62 113.341 1196.38 112.956C1194.13 112.571 1192.09 111.405 1190.62 109.663C1189.15 107.922 1188.35 105.717 1188.35 103.439C1188.35 101.161 1189.15 98.957 1190.62 97.2155C1192.09 95.474 1194.13 94.3075 1196.38 93.9224C1198.62 93.5372 1200.93 93.958 1202.9 95.1106C1204.87 96.2631 1206.36 98.0731 1207.12 100.221H1214.11V87.346ZM1194.78 103.439C1194.78 104.293 1195.12 105.112 1195.73 105.715C1196.33 106.319 1197.15 106.658 1198.01 106.658C1198.86 106.658 1199.68 106.319 1200.28 105.715C1200.89 105.112 1201.23 104.293 1201.23 103.439C1201.23 102.586 1200.89 101.767 1200.28 101.163C1199.68 100.56 1198.86 100.221 1198.01 100.221C1197.15 100.221 1196.33 100.56 1195.73 101.163C1195.12 101.767 1194.78 102.586 1194.78 103.439ZM1198.01 138.845C1197.15 138.845 1196.33 139.184 1195.73 139.787C1195.12 140.391 1194.78 141.21 1194.78 142.063C1194.78 142.917 1195.12 143.736 1195.73 144.339C1196.33 144.943 1197.15 145.282 1198.01 145.282C1198.86 145.282 1199.68 144.943 1200.28 144.339C1200.89 143.736 1201.23 142.917 1201.23 142.063C1201.23 141.21 1200.89 140.391 1200.28 139.787C1199.68 139.184 1198.86 138.845 1198.01 138.845Z" fill="#00B7EB"/>
<path d="M1192.4 76.3574L1192.1 75.959L1192.09 75.9625L1192.4 76.3574ZM1207.67 71.2526L1207.67 71.7528L1207.68 71.7525L1207.67 71.2526ZM1218.25 164.764C1218.42 164.542 1218.37 164.229 1218.15 164.064C1217.93 163.899 1217.61 163.945 1217.45 164.166L1218.25 164.764ZM1215.79 166.782L1215.43 166.436L1215.43 166.437L1215.79 166.782ZM1184.22 165.798L1184.61 165.486L1184.61 165.484L1184.22 165.798ZM1178.94 154.52L1179.43 154.422L1179.37 154.117L1179.07 154.037L1178.94 154.52ZM1172.15 150.947L1171.83 151.327L1171.83 151.327L1172.15 150.947ZM1168.55 119.7L1169 119.924L1169 119.912L1168.55 119.7ZM1172.66 114.84L1172.39 114.418L1172.38 114.423L1172.38 114.429L1172.66 114.84ZM1174.03 114.08L1174.24 114.531L1174.64 114.339L1174.5 113.919L1174.03 114.08ZM1174.44 97.5298L1174.91 97.6985L1174.91 97.6975L1174.44 97.5298ZM1179.82 89.3737L1180.13 89.7621L1180.13 89.7617L1179.82 89.3737ZM1185.49 87.0177L1185.53 87.5161L1185.9 87.4866L1185.98 87.1209L1185.49 87.0177ZM1192.7 76.7559C1197.01 73.4931 1202.27 71.735 1207.67 71.7526L1207.67 70.7526C1202.05 70.7343 1196.58 72.5637 1192.1 75.959L1192.7 76.7559ZM1207.68 71.7525C1209.5 71.7134 1211.3 72.1327 1212.91 72.9715L1213.37 72.0841C1211.61 71.1679 1209.65 70.7101 1207.66 70.7527L1207.68 71.7525ZM1212.91 72.9715C1213.69 73.3744 1214.72 74.226 1215.71 75.2011C1216.69 76.17 1217.58 77.2152 1218.08 77.9684L1218.92 77.4115C1218.36 76.5845 1217.42 75.4874 1216.41 74.4897C1215.41 73.4981 1214.29 72.5587 1213.37 72.0841L1212.91 72.9715ZM1217.45 164.166C1216.82 165.005 1216.19 165.647 1215.43 166.436L1216.15 167.129C1216.89 166.356 1217.58 165.664 1218.25 164.764L1217.45 164.166ZM1215.43 166.437C1212.32 169.696 1207.08 173.75 1201.23 173.75V174.75C1207.5 174.75 1213 170.435 1216.15 167.128L1215.43 166.437ZM1201.23 173.75C1193.77 173.75 1188.22 169.999 1184.61 165.486L1183.83 166.11C1187.58 170.802 1193.4 174.75 1201.23 174.75V173.75ZM1184.61 165.484C1182.02 162.267 1180.24 158.472 1179.43 154.422L1178.45 154.617C1179.29 158.826 1181.14 162.769 1183.83 166.111L1184.61 165.484ZM1179.07 154.037C1176.64 153.385 1174.39 152.199 1172.48 150.567L1171.83 151.327C1173.85 153.057 1176.24 154.312 1178.81 155.002L1179.07 154.037ZM1172.48 150.567C1169.04 147.62 1166.29 142.823 1166.29 135.626H1165.29C1165.29 143.106 1168.16 148.184 1171.83 151.327L1172.48 150.567ZM1166.29 135.626C1166.29 129.053 1167.11 123.707 1169 119.924L1168.1 119.476C1166.11 123.469 1165.29 129.002 1165.29 135.626H1166.29ZM1169 119.912C1169.88 118.038 1171.24 116.43 1172.95 115.251L1172.38 114.429C1170.53 115.708 1169.05 117.454 1168.1 119.488L1169 119.912ZM1172.93 115.261C1173.35 114.992 1173.79 114.748 1174.24 114.531L1173.81 113.629C1173.32 113.863 1172.85 114.127 1172.39 114.418L1172.93 115.261ZM1174.5 113.919C1172.71 108.69 1173.18 102.538 1174.91 97.6985L1173.97 97.3611C1172.17 102.37 1171.68 108.759 1173.55 114.242L1174.5 113.919ZM1174.91 97.6975C1176.02 94.5857 1177.77 91.6821 1180.13 89.7621L1179.5 88.9854C1176.95 91.0565 1175.12 94.1396 1173.97 97.3621L1174.91 97.6975ZM1180.13 89.7617C1181.69 88.4967 1183.53 87.6744 1185.53 87.5161L1185.45 86.5192C1183.22 86.6957 1181.19 87.6114 1179.5 88.9857L1180.13 89.7617ZM1185.98 87.1209C1186.88 82.8586 1189.4 79.3189 1192.71 76.7523L1192.09 75.9625C1188.64 78.6489 1185.96 82.3833 1185 86.9144L1185.98 87.1209ZM1214.11 87.2816H1215.11V87.2616L1215.11 87.2416L1214.11 87.2816ZM1214.1 86.9597L1215.1 86.9197L1215.1 86.9056L1214.1 86.9597ZM1213.11 82.0416L1212.16 82.3553L1212.16 82.3671L1212.17 82.3788L1213.11 82.0416ZM1211.12 78.8873L1211.81 78.1652L1211.79 78.1486L1211.77 78.1329L1211.12 78.8873ZM1207.67 77.69L1207.67 78.6899L1207.69 78.6901L1207.72 78.6888L1207.67 77.69ZM1196.36 81.4365L1195.76 80.637L1195.75 80.6419L1195.74 80.647L1196.36 81.4365ZM1191.56 90.5646L1192.56 90.5654V90.5646H1191.56ZM1187.32 93.6159L1187.64 92.6671L1187.64 92.6662L1187.32 93.6159ZM1183.88 94.3691L1183.25 93.5897L1183.25 93.5942L1183.88 94.3691ZM1180.5 99.6928L1179.56 99.3557L1179.56 99.3565L1180.5 99.6928ZM1181.36 114.531L1180.53 115.085L1180.53 115.086L1181.36 114.531ZM1181.9 116.314L1180.9 116.315L1180.9 117.314H1181.9V116.314ZM1201.23 130.798H1202.23H1201.23ZM1201.23 132.954H1200.23V133.662L1200.89 133.897L1201.23 132.954ZM1194.78 132.954L1195.12 133.897L1195.78 133.662V132.954H1194.78ZM1175.46 122.751L1175.46 123.751H1175.46V122.751ZM1174.33 122.545L1174.68 121.609L1173.84 121.292L1173.44 122.098L1174.33 122.545ZM1174.31 122.584L1175.2 123.032L1175.21 123.031L1174.31 122.584ZM1176.35 146.054L1177 145.296L1177 145.295L1176.35 146.054ZM1189.24 161.781L1188.46 162.404L1188.46 162.407L1189.24 161.781ZM1210.57 163.178L1209.85 162.487L1209.85 162.487L1210.57 163.178ZM1213.38 159.463L1212.52 158.959L1212.52 158.968L1213.38 159.463ZM1214.11 157.944L1215.05 158.301L1215.11 158.129V157.944H1214.11ZM1214.11 106.658H1215.11V105.658H1214.11V106.658ZM1207.12 106.658V105.658H1206.42L1206.18 106.324L1207.12 106.658ZM1188.35 103.439H1189.35H1188.35ZM1207.12 100.221L1206.18 100.554L1206.42 101.221H1207.12V100.221ZM1214.11 100.221V101.221H1215.11V100.221H1214.11ZM1215.11 87.346V87.2816H1213.11V87.346H1215.11ZM1215.11 87.2416L1215.1 86.9197L1213.1 86.9997L1213.11 87.3216L1215.11 87.2416ZM1215.1 86.9056C1215 85.1303 1214.65 83.3783 1214.05 81.7043L1212.17 82.3788C1212.7 83.8705 1213.01 85.4318 1213.1 87.0138L1215.1 86.9056ZM1214.06 81.7279C1213.61 80.3746 1212.84 79.1514 1211.81 78.1652L1210.42 79.6094C1211.22 80.3696 1211.81 81.3124 1212.16 82.3553L1214.06 81.7279ZM1211.77 78.1329C1210.63 77.1358 1209.14 76.6194 1207.62 76.6911L1207.72 78.6888C1208.72 78.6414 1209.7 78.9829 1210.46 79.6417L1211.77 78.1329ZM1207.67 76.69C1203.38 76.6703 1199.19 78.0565 1195.76 80.637L1196.96 82.236C1200.04 79.9177 1203.8 78.6723 1207.67 78.6899L1207.67 76.69ZM1195.74 80.647C1192.56 83.1242 1190.56 86.5452 1190.56 90.5646H1192.56C1192.56 87.2713 1194.18 84.3965 1196.97 82.226L1195.74 80.647ZM1190.56 90.5639C1190.56 90.9151 1190.48 91.2613 1190.32 91.5739L1192.1 92.4867C1192.4 91.8921 1192.56 91.2336 1192.56 90.5654L1190.56 90.5639ZM1190.32 91.5739C1190.16 91.8865 1189.93 92.1567 1189.64 92.3622L1190.81 93.9854C1191.35 93.595 1191.79 93.0813 1192.1 92.4867L1190.32 91.5739ZM1189.64 92.3622C1189.36 92.5676 1189.03 92.7024 1188.68 92.7555L1188.98 94.7326C1189.64 94.6319 1190.27 94.3758 1190.81 93.9854L1189.64 92.3622ZM1188.68 92.7555C1188.33 92.8085 1187.97 92.7782 1187.64 92.6671L1187.01 94.5648C1187.64 94.7758 1188.32 94.8333 1188.98 94.7326L1188.68 92.7555ZM1187.64 92.6662C1186.89 92.4189 1186.13 92.3528 1185.37 92.5178C1184.61 92.681 1183.92 93.0561 1183.25 93.5897L1184.5 95.1485C1184.99 94.7551 1185.41 94.5541 1185.79 94.4727C1186.16 94.393 1186.55 94.4139 1187.01 94.5657L1187.64 92.6662ZM1183.25 93.5942C1181.8 94.7739 1180.48 96.7791 1179.56 99.3557L1181.44 100.03C1182.29 97.6754 1183.43 96.0242 1184.51 95.144L1183.25 93.5942ZM1179.56 99.3565C1177.7 104.579 1177.83 111.031 1180.53 115.085L1182.19 113.977C1179.95 110.615 1179.71 104.874 1181.44 100.029L1179.56 99.3565ZM1180.53 115.086C1180.77 115.45 1180.9 115.877 1180.9 116.315L1182.9 116.313C1182.9 115.481 1182.65 114.668 1182.19 113.976L1180.53 115.086ZM1181.9 117.314H1186.73V115.314H1181.9V117.314ZM1186.73 117.314C1190.31 117.314 1193.74 118.735 1196.27 121.264L1197.69 119.849C1194.78 116.945 1190.84 115.314 1186.73 115.314V117.314ZM1196.27 121.264C1198.81 123.792 1200.23 127.222 1200.23 130.798H1202.23C1202.23 126.691 1200.59 122.753 1197.69 119.849L1196.27 121.264ZM1200.23 130.798V132.954H1202.23V130.798H1200.23ZM1200.89 133.897C1202.82 134.578 1204.45 135.918 1205.48 137.679L1207.2 136.666C1205.93 134.498 1203.93 132.849 1201.56 132.012L1200.89 133.897ZM1205.48 137.679C1206.51 139.44 1206.89 141.51 1206.54 143.522L1208.52 143.86C1208.94 141.383 1208.48 138.834 1207.2 136.666L1205.48 137.679ZM1206.54 143.522C1206.2 145.534 1205.15 147.36 1203.59 148.676L1204.88 150.206C1206.8 148.586 1208.09 146.338 1208.52 143.86L1206.54 143.522ZM1203.59 148.676C1202.03 149.992 1200.05 150.714 1198.01 150.714V152.714C1200.52 152.714 1202.96 151.826 1204.88 150.206L1203.59 148.676ZM1198.01 150.714C1195.96 150.714 1193.98 149.992 1192.42 148.676L1191.13 150.206C1193.06 151.826 1195.49 152.714 1198.01 152.714V150.714ZM1192.42 148.676C1190.86 147.36 1189.81 145.534 1189.47 143.522L1187.5 143.86C1187.92 146.338 1189.21 148.586 1191.13 150.206L1192.42 148.676ZM1189.47 143.522C1189.12 141.51 1189.5 139.44 1190.53 137.679L1188.81 136.666C1187.54 138.834 1187.07 141.383 1187.5 143.86L1189.47 143.522ZM1190.53 137.679C1191.57 135.918 1193.19 134.578 1195.12 133.897L1194.45 132.012C1192.08 132.849 1190.08 134.498 1188.81 136.666L1190.53 137.679ZM1195.78 132.954V130.798H1193.78V132.954H1195.78ZM1195.78 130.798C1195.78 125.803 1191.73 121.751 1186.73 121.751V123.751C1190.63 123.751 1193.78 126.909 1193.78 130.798H1195.78ZM1186.73 121.751H1175.46V123.751H1186.73V121.751ZM1175.46 121.751C1175.19 121.751 1174.93 121.703 1174.68 121.609L1173.98 123.481C1174.45 123.659 1174.95 123.75 1175.46 123.751L1175.46 121.751ZM1173.44 122.098L1173.42 122.136L1175.21 123.031L1175.22 122.993L1173.44 122.098ZM1173.42 122.136C1172.04 124.888 1171.24 129.3 1171.24 135.626H1173.24C1173.24 129.4 1174.03 125.365 1175.2 123.032L1173.42 122.136ZM1171.24 135.626C1171.24 141.439 1173.39 144.835 1175.7 146.814L1177 145.295C1175.14 143.707 1173.24 140.872 1173.24 135.626H1171.24ZM1175.7 146.813C1178.11 148.887 1180.82 149.501 1181.9 149.501V147.501C1181.3 147.501 1179.05 147.058 1177 145.296L1175.7 146.813ZM1181.9 149.501C1182.49 149.501 1183.05 149.735 1183.47 150.151L1184.88 148.736C1184.09 147.945 1183.02 147.501 1181.9 147.501V149.501ZM1183.47 150.151C1183.89 150.567 1184.12 151.131 1184.12 151.719H1186.12C1186.12 150.6 1185.68 149.527 1184.88 148.736L1183.47 150.151ZM1184.12 151.719C1184.12 154.352 1185.51 158.705 1188.46 162.404L1190.03 161.157C1187.31 157.75 1186.12 153.824 1186.12 151.719H1184.12ZM1188.46 162.407C1191.37 166.029 1195.61 168.813 1201.23 168.813V166.813C1196.35 166.813 1192.64 164.421 1190.02 161.155L1188.46 162.407ZM1201.23 168.813C1205.22 168.813 1208.69 166.592 1211.29 163.868L1209.85 162.487C1207.44 165.004 1204.45 166.813 1201.23 166.813V168.813ZM1211.29 163.869C1212.58 162.524 1213.59 161.126 1214.25 159.959L1212.52 158.968C1211.93 159.99 1211.02 161.257 1209.85 162.487L1211.29 163.869ZM1214.25 159.968C1214.56 159.435 1214.83 158.878 1215.05 158.301L1213.18 157.587C1213 158.062 1212.78 158.52 1212.52 158.959L1214.25 159.968ZM1215.11 157.944V106.658H1213.11V157.944H1215.11ZM1214.11 105.658H1207.12V107.658H1214.11V105.658ZM1206.18 106.324C1205.5 108.249 1204.16 109.872 1202.4 110.905L1203.41 112.631C1205.58 111.359 1207.23 109.362 1208.06 106.992L1206.18 106.324ZM1202.4 110.905C1200.63 111.939 1198.56 112.316 1196.55 111.971L1196.21 113.942C1198.69 114.367 1201.24 113.902 1203.41 112.631L1202.4 110.905ZM1196.55 111.971C1194.53 111.625 1192.7 110.579 1191.39 109.018L1189.86 110.308C1191.48 112.23 1193.73 113.517 1196.21 113.942L1196.55 111.971ZM1191.39 109.018C1190.07 107.457 1189.35 105.481 1189.35 103.439H1187.35C1187.35 105.953 1188.24 108.386 1189.86 110.308L1191.39 109.018ZM1189.35 103.439C1189.35 101.398 1190.07 99.4215 1191.39 97.8603L1189.86 96.5706C1188.24 98.4925 1187.35 100.925 1187.35 103.439H1189.35ZM1191.39 97.8603C1192.7 96.2991 1194.53 95.2533 1196.55 94.908L1196.21 92.9367C1193.73 93.3617 1191.48 94.6488 1189.86 96.5706L1191.39 97.8603ZM1196.55 94.908C1198.56 94.5626 1200.63 94.94 1202.4 95.9733L1203.41 94.2479C1201.24 92.9761 1198.69 92.5117 1196.21 92.9367L1196.55 94.908ZM1202.4 95.9733C1204.16 97.0066 1205.5 98.6292 1206.18 100.554L1208.06 99.8871C1207.23 97.517 1205.58 95.5196 1203.41 94.2479L1202.4 95.9733ZM1207.12 101.221H1214.11V99.2206H1207.12V101.221ZM1215.11 100.221V87.346H1213.11V100.221H1215.11ZM1193.78 103.439C1193.78 104.558 1194.23 105.632 1195.02 106.423L1196.44 105.008C1196.02 104.592 1195.78 104.027 1195.78 103.439H1193.78ZM1195.02 106.423C1195.81 107.214 1196.89 107.658 1198.01 107.658V105.658C1197.42 105.658 1196.85 105.424 1196.44 105.008L1195.02 106.423ZM1198.01 107.658C1199.13 107.658 1200.2 107.214 1200.99 106.423L1199.58 105.008C1199.16 105.424 1198.6 105.658 1198.01 105.658V107.658ZM1200.99 106.423C1201.78 105.632 1202.23 104.558 1202.23 103.439H1200.23C1200.23 104.027 1199.99 104.592 1199.58 105.008L1200.99 106.423ZM1202.23 103.439C1202.23 102.32 1201.78 101.247 1200.99 100.456L1199.58 101.871C1199.99 102.287 1200.23 102.851 1200.23 103.439H1202.23ZM1200.99 100.456C1200.2 99.6649 1199.13 99.2206 1198.01 99.2206V101.221C1198.6 101.221 1199.16 101.455 1199.58 101.871L1200.99 100.456ZM1198.01 99.2206C1196.89 99.2206 1195.81 99.6649 1195.02 100.456L1196.44 101.871C1196.85 101.455 1197.42 101.221 1198.01 101.221V99.2206ZM1195.02 100.456C1194.23 101.247 1193.78 102.32 1193.78 103.439H1195.78C1195.78 102.851 1196.02 102.287 1196.44 101.871L1195.02 100.456ZM1198.01 137.845C1196.89 137.845 1195.81 138.289 1195.02 139.08L1196.44 140.495C1196.85 140.079 1197.42 139.845 1198.01 139.845V137.845ZM1195.02 139.08C1194.23 139.871 1193.78 140.944 1193.78 142.063H1195.78C1195.78 141.475 1196.02 140.911 1196.44 140.495L1195.02 139.08ZM1193.78 142.063C1193.78 143.182 1194.23 144.256 1195.02 145.047L1196.44 143.632C1196.02 143.216 1195.78 142.651 1195.78 142.063H1193.78ZM1195.02 145.047C1195.81 145.838 1196.89 146.282 1198.01 146.282V144.282C1197.42 144.282 1196.85 144.048 1196.44 143.632L1195.02 145.047ZM1198.01 146.282C1199.13 146.282 1200.2 145.838 1200.99 145.047L1199.58 143.632C1199.16 144.048 1198.6 144.282 1198.01 144.282V146.282ZM1200.99 145.047C1201.78 144.256 1202.23 143.182 1202.23 142.063H1200.23C1200.23 142.651 1199.99 143.216 1199.58 143.632L1200.99 145.047ZM1202.23 142.063C1202.23 140.944 1201.78 139.871 1200.99 139.08L1199.58 140.495C1199.99 140.911 1200.23 141.475 1200.23 142.063H1202.23ZM1200.99 139.08C1200.2 138.289 1199.13 137.845 1198.01 137.845V139.845C1198.6 139.845 1199.16 140.079 1199.58 140.495L1200.99 139.08Z" fill="#020202" mask="url(#path-17-outside-1_3_61)"/>
</g>
<path fill-rule="evenodd" clip-rule="evenodd" d="M1217.33 165.493L1219.31 163.985C1220.06 164.004 1220.8 164.004 1221.54 163.985L1231.15 171.328C1231.65 171.713 1232.24 171.98 1232.88 172.106C1233.51 172.233 1234.16 172.216 1234.79 172.057C1239.52 170.853 1244.07 169.052 1248.32 166.702C1248.87 166.394 1249.34 165.967 1249.69 165.454C1250.05 164.941 1250.27 164.357 1250.34 163.748L1251.7 152.074C1252.24 151.588 1252.75 151.096 1253.25 150.597L1265.5 149.219C1266.14 149.148 1266.75 148.936 1267.29 148.599C1267.83 148.263 1268.28 147.811 1268.6 147.28C1271.05 143.228 1272.94 138.884 1274.2 134.36C1274.37 133.764 1274.38 133.139 1274.25 132.535C1274.12 131.932 1273.84 131.366 1273.43 130.885L1265.78 121.735C1265.8 121.027 1265.8 120.318 1265.78 119.609L1273.47 110.435C1273.88 109.953 1274.15 109.388 1274.29 108.784C1274.42 108.18 1274.4 107.556 1274.24 106.96C1272.97 102.435 1271.09 98.0898 1268.63 94.0399C1268.31 93.5099 1267.86 93.059 1267.32 92.7232C1266.78 92.3874 1266.17 92.1759 1265.54 92.1056L1253.31 90.8062C1252.8 90.2943 1252.29 89.8021 1251.76 89.3296L1250.32 77.6254C1250.25 77.0161 1250.02 76.4319 1249.67 75.9191C1249.32 75.4064 1248.85 74.9795 1248.29 74.6723C1244.05 72.3262 1239.5 70.5272 1234.76 69.3222C1234.14 69.1637 1233.48 69.1475 1232.85 69.2749C1232.22 69.4023 1231.63 69.6697 1231.12 70.0556L1221.54 77.3596H1219.31L1217.33 75.8499V85.2656C1217.61 85.3033 1217.89 85.3148 1218.17 85.2986C1219.66 85.215 1221.15 85.215 1222.64 85.2986C1223.66 85.3573 1224.67 85.0521 1225.47 84.4422L1234.63 77.4581C1237.29 78.2595 1239.88 79.2857 1242.36 80.5244L1243.68 91.6331C1243.79 92.6018 1244.27 93.4962 1245.04 94.1432C1246.15 95.0906 1247.21 96.0996 1248.2 97.1653C1248.88 97.8941 1249.82 98.3571 1250.83 98.4646L1262.47 99.7C1263.77 102.065 1264.84 104.536 1265.68 107.083L1258.37 115.814C1257.72 116.583 1257.4 117.554 1257.47 118.536H1257.48C1257.57 119.959 1257.57 121.385 1257.48 122.808C1257.42 123.782 1257.74 124.744 1258.38 125.505L1265.7 134.232C1264.86 136.779 1263.78 139.249 1262.48 141.615L1250.84 142.875C1249.82 142.982 1248.88 143.445 1248.21 144.174C1247.22 145.24 1246.16 146.249 1245.04 147.196C1244.28 147.843 1243.79 148.738 1243.68 149.706L1242.39 160.82C1239.91 162.059 1237.32 163.086 1234.66 163.886L1225.51 156.902C1224.78 156.344 1223.87 156.04 1222.94 156.041H1222.69C1221.2 156.124 1219.71 156.124 1218.22 156.041C1217.92 156.024 1217.62 156.037 1217.33 156.08V165.493ZM1217.33 144.112C1221.59 144.624 1225.92 144.072 1229.89 142.499C1234.41 140.711 1238.28 137.683 1241 133.798C1243.72 129.912 1245.17 125.345 1245.17 120.672C1245.16 114.408 1242.55 108.403 1237.91 103.974C1233.27 99.5448 1226.99 97.0537 1220.43 97.0471C1219.39 97.0471 1218.36 97.1095 1217.33 97.2324V105.201C1220.5 104.625 1223.76 104.945 1226.74 106.121C1229.75 107.313 1232.33 109.332 1234.14 111.922C1235.95 114.512 1236.92 117.557 1236.92 120.672C1236.92 124.849 1235.18 128.855 1232.09 131.809C1229 134.763 1224.8 136.422 1220.43 136.422C1219.38 136.422 1218.35 136.328 1217.33 136.143V144.112Z" fill="black"/>
<path fill-rule="evenodd" clip-rule="evenodd" d="M1220.43 45.5027C1220.21 45.5009 1219.99 45.5 1219.77 45.5C1178.9 45.5 1145.13 77.3364 1140.69 119.473L1126.47 139.136C1122.03 146.627 1121.14 155.991 1124.69 163.482C1128.25 170.036 1133.58 174.718 1139.8 175.655V185.955C1139.8 202.809 1151.35 217.791 1166.46 222.473V251.5H1220.43V232.773H1184.23V204.682H1175.34C1165.57 204.682 1157.57 196.255 1157.57 185.955V157.864H1144.24C1140.69 157.864 1138.02 153.182 1140.69 150.373L1157.57 126.964C1159.35 92.3182 1186.01 64.2273 1219.77 64.2273C1219.99 64.2273 1220.21 64.2284 1220.43 64.2307V45.5027Z" fill="black"/>
<path d="M1211.15 188.155H1220.43V251.5H1211.15V188.155Z" fill="black"/>
<rect width="9.78886" height="2.06081" transform="matrix(0.707385 0.706828 -0.707385 0.706828 1249.68 235.535)" fill="black"/>
<path fill-rule="evenodd" clip-rule="evenodd" d="M1255.5 244.29H1267.41V240.685H1251.89L1255.5 244.29Z" fill="black"/>
<path fill-rule="evenodd" clip-rule="evenodd" d="M1249.68 235.535H1220.43V239.14H1253.29L1249.68 235.535Z" fill="black"/>
<ellipse cx="1269.26" cy="242.23" rx="3.09244" ry="3.09" fill="black"/>
<rect width="12.0865" height="2.54453" transform="matrix(0.848899 -0.528546 -0.856991 -0.515342 1264.04 213.106)" fill="black"/>
<path fill-rule="evenodd" clip-rule="evenodd" d="M1272.65 205.057L1290.38 204.92L1290.4 208.206L1267.31 208.385L1272.65 205.057Z" fill="black"/>
<path fill-rule="evenodd" clip-rule="evenodd" d="M1264.05 213.106L1220.5 213.443L1220.47 210.156L1269.39 209.778L1264.05 213.106Z" fill="black"/>
<ellipse cx="3.09244" cy="3.09" rx="3.09244" ry="3.09" transform="matrix(0.99997 -0.00774 -0.00775221 -0.99997 1288.57 209.629)" fill="black"/>
<ellipse cx="1303.41" cy="223.175" rx="3.09244" ry="3.09" fill="black"/>
<rect x="1220.43" y="221.115" width="80.9188" height="3.605" fill="black"/>
<defs>
<filter id="filter0_dd_3_61" x="1161.29" y="67.75" width="61.6213" height="112" filterUnits="userSpaceOnUse" color-interpolation-filters="sRGB">
<feFlood flood-opacity="0" result="BackgroundImageFix"/>
<feColorMatrix in="SourceAlpha" type="matrix" values="0 0 0 0 0 0 0 0 0 0 0 0 0 0 0 0 0 0 127 0" result="hardAlpha"/>
<feMorphology radius="1" operator="dilate" in="SourceAlpha" result="effect1_dropShadow_3_61"/>
<feOffset dy="1"/>
<feGaussianBlur stdDeviation="1.5"/>
<feColorMatrix type="matrix" values="0 0 0 0 0 0 0 0 0 0 0 0 0 0 0 0 0 0 0.15 0"/>
<feBlend mode="normal" in2="BackgroundImageFix" result="effect1_dropShadow_3_61"/>
<feColorMatrix in="SourceAlpha" type="matrix" values="0 0 0 0 0 0 0 0 0 0 0 0 0 0 0 0 0 0 127 0" result="hardAlpha"/>
<feOffset dy="1"/>
<feGaussianBlur stdDeviation="1"/>
<feColorMatrix type="matrix" values="0 0 0 0 0 0 0 0 0 0 0 0 0 0 0 0 0 0 0.3 0"/>
<feBlend mode="normal" in2="effect1_dropShadow_3_61" result="effect2_dropShadow_3_61"/>
<feBlend mode="normal" in="SourceGraphic" in2="effect2_dropShadow_3_61" result="shape"/>
</filter>
</defs>
</svg>
